<svg xmlns="http://www.w3.org/2000/svg" width="74" height="74" viewBox="0 0 74 74">
  <g id="Book-icon" transform="translate(-316 -1805)">
    <circle id="Ellipse_76" data-name="Ellipse 76" cx="37" cy="37" r="37" transform="translate(316 1805)" fill="#81b5fe"/>
    <path id="Icon_awesome-book-reader" data-name="Icon awesome-book-reader" d="M32.706,8.4A8.672,8.672,0,0,0,23.787,0a8.672,8.672,0,0,0-8.92,8.4,8.672,8.672,0,0,0,8.92,8.4A8.672,8.672,0,0,0,32.706,8.4Zm-11,12.7C16.192,17.92,7.262,17.047,2.769,16.806A2.515,2.515,0,0,0,0,19.177v19.5a2.48,2.48,0,0,0,2.461,2.367c4.057.2,12.264.935,17.937,3.626a1.3,1.3,0,0,0,1.9-1.039V22.1a1.151,1.151,0,0,0-.6-1Zm23.1-4.292c-4.492.24-13.423,1.114-18.934,4.292a1.172,1.172,0,0,0-.6,1.018V43.625a1.3,1.3,0,0,0,1.908,1.041c5.672-2.688,13.874-3.423,17.93-3.623a2.481,2.481,0,0,0,2.461-2.368v-19.5A2.516,2.516,0,0,0,44.8,16.806Z" transform="translate(329.213 1822.598)" fill="#1a2744"/>
  </g>
</svg>
