<svg xmlns="http://www.w3.org/2000/svg" width="63.608" height="63.608" viewBox="0 0 63.608 63.608"><g transform="translate(-319 -1805.392)"><circle cx="29.5" cy="29.5" r="29.5" transform="translate(321 1808)" fill="#1a2744"/><path d="M31.8.563a31.8,31.8,0,1,0,31.8,31.8A31.8,31.8,0,0,0,31.8.563Zm0,12.311A11.285,11.285,0,1,1,20.519,24.159,11.286,11.286,0,0,1,31.8,12.874Zm0,44.116a24.575,24.575,0,0,1-18.788-8.746,14.3,14.3,0,0,1,12.632-7.669,3.138,3.138,0,0,1,.911.141A16.98,16.98,0,0,0,31.8,41.6a16.915,16.915,0,0,0,5.245-.885,3.138,3.138,0,0,1,.911-.141,14.3,14.3,0,0,1,12.632,7.669A24.575,24.575,0,0,1,31.8,56.989Z" transform="translate(319 1804.829)" fill="#81b5fe"/></g></svg>