<svg xmlns="http://www.w3.org/2000/svg" width="74" height="74" viewBox="0 0 74 74">
  <g id="Sales-icon" transform="translate(-314 -1802)">
    <circle id="Ellipse_78" data-name="Ellipse 78" cx="37" cy="37" r="37" transform="translate(314 1802)" fill="#81b5fe"/>
    <g id="Icon_ionic-ios-stats" data-name="Icon ionic-ios-stats" transform="translate(331.375 1818.5)">
      <path id="Path_310" data-name="Path 310" d="M13.024,35.647h3.893A.651.651,0,0,0,17.566,35V5.149a.651.651,0,0,0-.649-.649H13.024a.651.651,0,0,0-.649.649V35A.651.651,0,0,0,13.024,35.647Z" transform="translate(1.037)" fill="#1a2744"/>
      <path id="Path_311" data-name="Path 311" d="M6.274,33.228h3.893a.651.651,0,0,0,.649-.649V20.9a.651.651,0,0,0-.649-.649H6.274a.651.651,0,0,0-.649.649v11.68A.651.651,0,0,0,6.274,33.228Z" transform="translate(0 2.419)" fill="#1a2744"/>
      <path id="Path_312" data-name="Path 312" d="M19.782,33.919h3.877a.654.654,0,0,0,.657-.657V16.407a.654.654,0,0,0-.657-.657H19.782a.654.654,0,0,0-.657.657V33.262A.654.654,0,0,0,19.782,33.919Z" transform="translate(2.073 1.728)" fill="#1a2744"/>
      <path id="Path_313" data-name="Path 313" d="M25.875,9.657V34.3a.654.654,0,0,0,.657.657h3.877a.654.654,0,0,0,.657-.657V9.657A.654.654,0,0,0,30.409,9H26.532A.654.654,0,0,0,25.875,9.657Z" transform="translate(3.11 0.691)" fill="#1a2744"/>
    </g>
  </g>
</svg>
