<svg xmlns="http://www.w3.org/2000/svg" width="74" height="74" viewBox="0 0 74 74">
  <g id="Trans-icon" transform="translate(-314 -1802)">
    <circle id="Ellipse_78" data-name="Ellipse 78" cx="37" cy="37" r="37" transform="translate(314 1802)" fill="#81b5fe"/>
    <path id="Icon_metro-dollar2" data-name="Icon metro-dollar2" d="M27.763,24.817a7.26,7.26,0,0,1-1.9,5.028,8.2,8.2,0,0,1-4.933,2.6v3.34a.588.588,0,0,1-.611.611H17.744a.619.619,0,0,1-.611-.611V32.45a12.029,12.029,0,0,1-2.433-.592,11.719,11.719,0,0,1-3.349-1.765,10.876,10.876,0,0,1-.887-.716q-.238-.229-.334-.344a.58.58,0,0,1-.038-.782l1.966-2.576a.594.594,0,0,1,.439-.229.473.473,0,0,1,.458.172l.038.038a9.965,9.965,0,0,0,4.637,2.385,6.665,6.665,0,0,0,1.412.153,4.627,4.627,0,0,0,2.719-.821,2.673,2.673,0,0,0,1.174-2.328,1.935,1.935,0,0,0-.286-1.011,3.576,3.576,0,0,0-.639-.8,5.238,5.238,0,0,0-1.116-.716q-.763-.391-1.259-.611t-1.527-.62q-.744-.305-1.174-.477T15.759,20.3q-.744-.334-1.193-.592t-1.078-.677a6.72,6.72,0,0,1-1.021-.811,11.894,11.894,0,0,1-.83-.935,4.669,4.669,0,0,1-.677-1.107,7.654,7.654,0,0,1-.4-1.269,6.623,6.623,0,0,1-.162-1.488,6.525,6.525,0,0,1,1.87-4.618,8.732,8.732,0,0,1,4.866-2.557V2.814a.619.619,0,0,1,.611-.611H20.32a.588.588,0,0,1,.611.611V6.173a10.615,10.615,0,0,1,2.109.439,12.226,12.226,0,0,1,1.66.639,9.2,9.2,0,0,1,1.212.716q.573.4.744.553t.286.267a.552.552,0,0,1,.1.725L25.492,12.3a.52.52,0,0,1-.439.305.608.608,0,0,1-.515-.134q-.057-.057-.277-.229t-.744-.506a9.848,9.848,0,0,0-1.116-.611,8.523,8.523,0,0,0-1.422-.5,6.367,6.367,0,0,0-1.632-.219,4.96,4.96,0,0,0-2.958.821,2.565,2.565,0,0,0-.983,3.034,2.148,2.148,0,0,0,.563.792,8.41,8.41,0,0,0,.754.63,6.721,6.721,0,0,0,1.069.592q.716.334,1.155.515t1.336.525q1.011.382,1.546.6t1.45.668a11.529,11.529,0,0,1,1.441.811,12.183,12.183,0,0,1,1.183.954,4.941,4.941,0,0,1,1.011,1.212,6.916,6.916,0,0,1,.6,1.46,6.3,6.3,0,0,1,.248,1.794Z" transform="translate(332.14 1819.698)" fill="#1a2744"/>
  </g>
</svg>
